PathFileType	4	(X/Y/Z)	C:/Users/opensim2020/Desktop/walking_exp_matlab/subject01_walking05_straight_03.trc	
DataRate	CameraRate	NumFrames	NumMarkers	Units	OrigDataRate	OrigDataStartFrame	OrigNumFrames	
100.00	100.00	8	43	mm	100.00	2274	223	
Frame#	Time	LFHD			RFHD			LBHD			RBHD			C7			T10			CLAV			STRN			RBAK			LSHO			LUPA			LELB			LFRM			LWRA			LWRB			LFIN			RSHO			RUPA			RELB			RFRM			RWRA			RWRB			RFIN			LASI			RASI			LPSI			RPSI			LTHI			LKNE			LTIB			LANK			LHEE			LTOE			RTHI			RKNE			RTIB			RANK			RHEE			RTOE			*39			*40			*41			*42			
		X1	Y1	Z1	X2	Y2	Z2	X3	Y3	Z3	X4	Y4	Z4	X5	Y5	Z5	X6	Y6	Z6	X7	Y7	Z7	X8	Y8	Z8	X9	Y9	Z9	X10	Y10	Z10	X11	Y11	Z11	X12	Y12	Z12	X13	Y13	Z13	X14	Y14	Z14	X15	Y15	Z15	X16	Y16	Z16	X17	Y17	Z17	X18	Y18	Z18	X19	Y19	Z19	X20	Y20	Z20	X21	Y21	Z21	X22	Y22	Z22	X23	Y23	Z23	X24	Y24	Z24	X25	Y25	Z25	X26	Y26	Z26	X27	Y27	Z27	X28	Y28	Z28	X29	Y29	Z29	X30	Y30	Z30	X31	Y31	Z31	X32	Y32	Z32	X33	Y33	Z33	X34	Y34	Z34	X35	Y35	Z35	X36	Y36	Z36	X37	Y37	Z37	X38	Y38	Z38	X39	Y39	Z39	X40	Y40	Z40	X41	Y41	Z41	X42	Y42	Z42	X43	Y43	Z43	

196	1.950	-1068.57788	582.07111	1668.24731	-954.44611	598.18695	1677.22375	-1056.41272	476.99365	1601.04126	-935.74585	491.04968	1609.08167	-1009.50201	463.56192	1420.56323	-997.28162	436.78354	1127.45813	-1017.29077	608.36761	1355.90137	-1022.58002	654.91510	1201.42749	-926.12561	417.54623	1225.27893	-1174.47192	534.83929	1382.63013	-1249.42944	477.82510	1199.08301	-1242.29382	445.69330	1054.18848	-1264.91724	458.78833	941.15649	-1244.96021	508.53458	810.33881	-1268.23035	453.37894	818.78607	-1271.74463	479.94031	737.03937	-863.47467	550.91907	1384.40308	-752.35693	525.89410	1185.06104	-740.60773	549.16388	1061.04688	-709.70435	617.68982	960.45496	-730.26215	735.01276	883.27698	-689.80450	696.35254	868.64246	-689.94470	760.41211	813.63635	-1105.56091	615.92871	923.93970	-886.66766	607.97943	920.41479	-1065.07910	427.81015	934.48871	-920.92993	423.22943	941.63013	-1163.38086	663.70599	609.93719	-1144.55969	692.10999	483.05890	-1158.48218	686.00250	293.82074	-1114.01294	710.41351	74.20203	-1060.82007	669.45685	42.44996	-1111.70203	857.65771	48.53971	-838.85211	488.33600	598.49200	-862.18878	454.69418	439.73248	-857.65466	333.49310	309.35535	-904.08624	227.13029	128.42284	-954.70679	168.48009	116.13943	-917.24384	338.47070	36.03561	-976.78577	578.03302	1707.30566	-3101.85693	1973.09314	1023.47577	-3140.63501	2012.56165	1022.05219			 
197	1.960	-1070.78699	591.98309	1669.13953	-956.49115	607.67078	1678.10925	-1058.91016	486.83875	1601.97717	-938.38586	500.30533	1610.05371	-1012.03973	473.30362	1421.33191	-998.97345	447.02591	1128.17517	-1019.10785	618.13739	1356.96313	-1023.92761	665.27063	1202.68042	-928.77271	427.11502	1225.98755	-1176.64746	544.95831	1382.97095	-1251.58887	489.87262	1198.85583	-1244.55859	458.64661	1053.71021	-1266.88989	472.78174	940.83185	-1246.78821	523.36530	810.45959	-1270.04370	468.23300	818.25970	-1273.41907	495.20996	736.87537	-865.45282	559.96228	1385.37402	-754.90674	533.32355	1185.89343	-743.12372	556.14825	1061.87744	-711.79730	623.39050	960.60706	-731.37933	739.90613	881.90399	-691.33057	700.59015	867.62915	-690.88599	763.97980	811.94586	-1106.24658	626.94415	925.15009	-887.87036	618.30121	921.08032	-1066.07764	438.44244	935.97009	-921.97980	433.77350	942.10236	-1165.14551	673.83893	611.34143	-1145.22900	701.85785	483.89395	-1161.11414	693.62659	294.03494	-1113.96802	711.94647	74.33150	-1061.02478	670.33008	43.05939	-1112.58740	859.07104	46.46136	-839.74164	500.84903	598.51312	-861.63342	468.49957	439.73929	-858.11694	343.15082	312.57193	-904.39636	232.17509	134.39285	-955.57050	174.55527	124.46593	-917.25116	339.14182	35.93176	-978.74463	588.00708	1708.45300	-3101.93311	1973.08887	1023.36224	-3140.53638	2012.54626	1022.05615			 
198	1.970	-1072.94348	601.80701	1670.12402	-958.54132	617.04138	1679.21094	-1061.69482	496.51334	1603.02795	-940.93439	509.59399	1611.08191	-1014.30273	482.79562	1422.13037	-1000.75232	457.16245	1129.07056	-1020.92712	627.92737	1358.17029	-1025.16956	675.45221	1204.03052	-931.21521	436.64737	1226.94385	-1178.64648	555.13629	1383.57495	-1253.51770	502.05530	1198.90686	-1246.66931	471.91287	1053.65430	-1268.86011	487.04614	940.84064	-1247.92749	538.19788	810.74652	-1272.14673	483.44174	818.26508	-1275.32813	511.06473	737.09546	-867.49323	569.02332	1386.63086	-757.41797	540.39960	1186.75073	-745.51398	563.03894	1062.97070	-713.91394	628.70465	960.91357	-732.94257	744.03333	880.41248	-693.12677	704.21863	866.64984	-691.97217	766.98737	810.23279	-1107.07288	637.75555	926.63336	-889.33630	628.23920	921.95197	-1067.00073	449.10837	937.46063	-922.96997	444.37869	942.95776	-1165.83521	683.70215	612.46008	-1145.92297	710.75232	483.69659	-1163.14795	699.64313	293.55106	-1113.79138	713.29730	74.33369	-1061.38147	670.91132	43.43927	-1112.15515	860.59393	45.14075	-840.34674	514.05438	598.48456	-860.64435	482.93701	439.34033	-858.49634	354.45251	315.62537	-904.91656	239.08345	140.69370	-957.43414	181.82141	133.45721	-917.52454	340.12756	35.97581	-981.21686	597.43536	1709.40369	-3101.98462	1973.17249	1023.41467	-3140.66211	2012.49182	1021.98755			 
199	1.980	-1075.00427	611.66357	1671.29028	-960.61340	626.42688	1680.36414	-1064.31226	506.32300	1604.23462	-943.40167	518.89709	1612.29626	-1016.78070	492.15152	1422.98206	-1002.46002	467.24353	1130.08630	-1022.60333	637.62280	1359.54529	-1026.33838	685.61292	1205.51709	-933.40729	446.14133	1228.07898	-1180.69641	565.40027	1384.38501	-1255.51770	514.21356	1199.30725	-1248.87036	485.33560	1053.79285	-1270.88037	501.66019	941.16907	-1249.84338	553.87372	811.63464	-1274.17358	499.08093	818.54572	-1277.17981	527.44476	737.62073	-869.55432	577.89160	1387.94580	-759.98254	548.00647	1188.08240	-748.06128	569.73322	1064.26050	-716.00458	633.82312	961.45697	-734.44635	747.85901	879.03540	-694.92615	707.62494	865.89288	-693.18634	769.59680	808.65649	-1108.12476	648.25629	928.19751	-890.67627	638.23553	923.11383	-1068.01099	459.59644	939.02673	-923.85254	454.61380	944.16949	-1166.72974	693.47412	613.21899	-1146.89880	718.73932	482.99359	-1164.46973	704.43671	292.82562	-1113.65942	714.39185	74.15909	-1061.66272	671.33911	43.86052	-1111.30115	861.81696	44.24096	-840.57587	527.93634	598.48822	-859.37012	498.52499	439.08823	-858.92389	366.59052	318.77551	-905.72278	246.79082	147.34741	-959.63611	190.90152	142.96716	-918.05701	341.07672	35.99813	-983.33942	606.89661	1710.64124	-3101.82300	1973.20020	1023.32733	-3140.50854	2012.60449	1022.10095			 
200	1.990	-1076.99927	621.53833	1672.41687	-962.65515	635.86249	1681.62354	-1066.78210	516.06586	1605.45911	-945.84540	528.11139	1613.67639	-1019.35846	501.71768	1423.94836	-1004.15833	477.20621	1131.18616	-1024.22156	647.32690	1361.00195	-1027.42859	695.53351	1206.97546	-935.44220	455.57663	1229.36096	-1182.70337	575.70911	1385.39783	-1257.55981	526.26007	1199.97156	-1251.13928	499.01367	1054.17590	-1272.99756	516.52295	941.73895	-1251.48059	569.71167	812.57428	-1276.25671	515.11420	819.09039	-1279.18188	544.35059	738.54761	-871.34814	586.70593	1389.50281	-762.24408	555.07617	1189.40247	-750.41718	576.27191	1065.79333	-718.14081	638.69153	962.02997	-736.02380	751.42255	877.72693	-696.61743	710.92963	865.36652	-694.53564	771.76514	807.03156	-1109.44067	658.48029	929.77765	-892.09937	648.13654	924.48816	-1069.11133	469.73990	940.64716	-925.03998	464.92606	945.42365	-1167.58765	702.45038	613.44604	-1147.92847	725.65295	482.19724	-1165.00232	708.60162	292.43137	-1113.56555	715.08868	74.16679	-1061.86523	671.31305	43.94798	-1111.00830	862.91064	43.41695	-840.57184	542.30762	598.39832	-857.47229	515.16656	438.89032	-859.18744	379.65817	322.06555	-906.70331	255.52930	154.56026	-962.21063	201.84212	152.55075	-918.69977	342.10028	36.08319	-985.49408	616.29053	1711.86145	-3101.92236	1973.09131	1023.30096	-3140.62402	2012.55188	1022.03351			 
201	2.000	-1079.13464	631.35529	1673.56335	-964.61218	645.12976	1682.85400	-1069.21338	525.79779	1606.69751	-948.23883	537.35907	1615.03528	-1021.62988	511.30215	1425.06738	-1005.95288	487.07373	1132.37402	-1025.70044	656.97656	1362.48645	-1028.42798	705.38763	1208.41699	-937.35718	464.89886	1230.74963	-1184.50745	586.07904	1386.50317	-1259.44250	538.43109	1200.78247	-1253.50037	512.76550	1054.73352	-1275.17017	531.63525	942.48621	-1252.86780	585.82928	813.82977	-1278.39636	531.58234	819.86554	-1281.20557	561.65826	739.61115	-873.16217	595.45599	1391.04456	-764.44183	562.15161	1191.18420	-752.85510	582.60162	1067.34204	-720.32819	643.26062	962.76349	-737.64056	754.74255	876.54517	-698.47870	713.70581	864.78107	-696.08374	773.65247	805.36566	-1110.87280	668.46967	931.34570	-893.77667	657.88965	926.03839	-1070.36255	479.83447	942.10919	-926.40436	475.02747	946.66016	-1168.61060	710.29999	613.31598	-1149.07178	731.74756	481.70901	-1164.96472	712.38464	292.36966	-1113.42615	715.42706	74.16924	-1061.84924	671.39075	44.06521	-1111.08411	863.59546	42.77771	-840.21155	557.31061	598.38483	-855.80713	532.26263	438.68604	-859.52869	393.41220	325.41534	-907.64099	265.71136	161.41667	-964.80353	214.18518	162.21527	-919.76642	343.14908	36.24307	-987.80573	625.75537	1713.06982	-3101.85205	1973.05542	1023.30426	-3140.66089	2012.41467	1021.83282			 
202	2.010	-1080.94849	641.14130	1674.59473	-966.54468	654.44098	1684.03577	-1071.62207	535.42572	1607.85510	-950.60284	546.41534	1616.29370	-1023.86444	520.96930	1426.15979	-1007.80609	496.80377	1133.50586	-1027.04199	666.57123	1363.86890	-1029.37964	715.19757	1209.79968	-939.10815	474.24796	1232.08984	-1186.16418	596.54523	1387.69348	-1261.35010	550.69098	1201.74512	-1255.80469	526.54126	1055.29871	-1277.24866	546.89771	943.33209	-1254.60864	602.50885	815.36389	-1280.43042	548.36035	820.79138	-1283.21057	579.53772	740.88300	-874.94586	604.15002	1392.51978	-766.31647	569.29395	1192.81604	-755.33856	588.62848	1068.85889	-722.30096	647.81433	963.59546	-739.25732	757.79681	875.22949	-700.21600	716.39111	864.35748	-697.68829	775.26855	803.68365	-1112.39221	678.18048	932.80078	-895.73322	667.08423	927.42358	-1071.78931	489.75150	943.38953	-927.60437	484.61795	947.97711	-1169.88953	716.79437	613.04767	-1150.30188	737.24701	481.52133	-1164.89270	715.70923	292.46869	-1113.33435	715.68811	74.19128	-1062.04016	671.44946	44.17643	-1110.82593	864.19922	42.16972	-839.65790	572.66992	598.25012	-854.78137	549.75708	438.73746	-859.84631	408.28482	328.95993	-908.60803	276.81436	168.09190	-966.77338	227.36510	172.04146	-920.73303	344.38733	37.01142	-989.94232	635.13409	1714.29065	-3101.78467	1973.04675	1023.26691	-3140.52393	2012.50098	1021.95630			 
203	2.020	-1082.91260	650.89215	1675.55896	-968.32013	663.67163	1685.08765	-1073.96667	545.02020	1608.95483	-952.63318	555.65765	1617.48450	-1025.96704	530.47766	1427.18860	-1009.74951	505.56659	1134.63525	-1028.27966	676.08624	1365.14563	-1030.22705	724.84277	1211.06116	-940.77454	483.44653	1233.37952	-1187.72302	607.06061	1388.80603	-1263.22803	563.12695	1202.74475	-1257.98901	540.31140	1056.00146	-1279.47510	562.32861	944.31781	-1256.37671	619.51624	817.06195	-1282.65637	565.46332	821.78448	-1285.51965	597.83710	742.37457	-876.75079	612.83948	1393.95496	-767.90063	576.35016	1194.48840	-758.01996	594.44415	1070.18750	-724.59552	651.83301	963.99060	-740.81177	760.71014	873.94086	-701.89545	718.77618	863.65399	-699.51129	776.84467	801.94086	-1113.94849	687.78772	934.08539	-897.39752	676.33051	928.83099	-1073.23486	499.51685	944.52112	-928.95972	494.09576	949.06323	-1171.23132	722.40747	612.80170	-1151.45728	742.42975	481.55295	-1164.95605	718.38153	292.64572	-1113.24036	715.84070	74.21597	-1062.04883	671.40790	44.22996	-1110.69849	864.67218	41.71387	-839.25037	588.18140	597.99738	-854.15607	567.36267	438.78723	-860.25104	423.84024	332.39047	-908.88245	289.46304	174.41672	-967.50226	240.74879	181.53831	-921.66626	347.45602	38.67369	-991.53705	644.63556	1715.47278	-3102.00708	1973.16223	1023.28314	-3140.63062	2012.57031	1021.99493			 
